<svg xmlns="http://www.w3.org/2000/svg" width="1659" height="2048" viewBox="0 0 1659 2048" version="1.1"><path d="M 821.429 13.250 C 787.561 59.589, 739.200 110.695, 691.494 150.562 C 662.340 174.925, 621.742 203.839, 587.718 224.471 C 573.092 233.339, 573.754 231.458, 580.495 245 C 586.506 257.075, 602.006 291.394, 601.967 292.540 C 601.949 293.068, 594.703 297.325, 585.864 302 C 438.559 379.916, 336.762 525.267, 314.128 690 C 310.493 716.450, 309.589 730.967, 309.614 762.500 C 309.643 800.435, 311.749 824.166, 318.129 858.436 C 347.525 1016.336, 450.925 1153.851, 594.746 1226.314 C 603.682 1230.816, 610.994 1234.838, 610.996 1235.250 C 611.004 1236.701, 588.690 1279.715, 578.218 1298.438 C 570.406 1312.405, 568.003 1317.492, 569.063 1317.821 C 572.556 1318.904, 648.524 1357.784, 667.607 1368.255 C 702.319 1387.303, 741.237 1411.334, 761.395 1426.169 L 765.922 1429.500 765.961 1498.250 C 765.982 1536.063, 765.778 1567, 765.506 1567 C 764.548 1567, 723.294 1544.150, 706.500 1534.317 C 680.887 1519.322, 664.764 1509.228, 615.980 1477.650 C 510.782 1409.556, 469.116 1377.366, 414.972 1322.356 C 353.546 1259.950, 301.118 1187.682, 242.774 1085 C 193.597 998.453, 169.004 926.566, 159.812 842.500 C 158.090 826.746, 158.085 767.603, 159.804 752 C 166.569 690.635, 181.978 637.533, 208.989 582.500 C 234.728 530.061, 267.838 482.496, 309.925 437.500 C 321.899 424.699, 343.777 403.822, 353.253 396.155 C 356.516 393.515, 358.410 391.371, 357.630 391.201 C 355.510 390.741, 329.652 402.059, 308 412.925 C 203.443 465.396, 117.814 541.505, 65.296 628.646 C 31.279 685.090, 11.195 744.303, 2.427 814 C 0.261 831.216, -0.581 886.297, 0.917 912.820 C 10.958 1090.651, 55.913 1234.235, 141.105 1360.575 C 165.997 1397.490, 192.304 1429.971, 237.426 1479.500 C 249.952 1493.250, 263.985 1509.239, 268.610 1515.031 C 286.287 1537.168, 304.485 1565.323, 321.290 1596.534 C 348.352 1646.794, 376.177 1721.092, 376.422 1743.745 C 376.465 1747.730, 376.725 1750.989, 377 1750.988 C 377.275 1750.986, 426.775 1710.340, 487 1660.664 L 596.500 1570.343 600 1572.525 C 611.320 1579.585, 659.002 1605.134, 693.265 1622.501 L 733.031 1642.656 720.265 1648.475 C 658.518 1676.626, 614.052 1702.304, 576.565 1731.458 C 522.806 1773.268, 493.324 1816.156, 491.296 1855.500 C 490.822 1864.696, 491.077 1867.873, 492.848 1874.874 C 497.706 1894.075, 509.660 1907.813, 526.252 1913.263 C 534.272 1915.897, 552.856 1916.060, 563.971 1913.593 C 604.887 1904.511, 628.550 1885.781, 635.985 1856.590 C 639.866 1841.356, 638.026 1815.835, 631.859 1799.352 C 630.127 1794.723, 630.002 1793.607, 631.134 1792.863 C 635.471 1790.010, 673.923 1767.935, 687.500 1760.504 C 705.069 1750.888, 764.490 1720, 765.418 1720 C 765.738 1720, 766 1750.574, 766 1787.942 L 766 1855.883 760.250 1860.310 C 757.087 1862.744, 751.206 1868.205, 747.181 1872.444 C 729.742 1890.809, 720.607 1912.315, 719.336 1938 C 717.861 1967.816, 729.200 1995.688, 751.374 2016.751 C 764.834 2029.536, 780.859 2038.504, 799.558 2043.716 C 808.863 2046.310, 810.750 2046.488, 829 2046.488 C 847.207 2046.488, 849.163 2046.305, 858.500 2043.728 C 878.925 2038.091, 896.574 2027.542, 910.809 2012.461 C 930.758 1991.327, 939.934 1966.822, 938.692 1938 C 938.097 1924.194, 936.017 1914.707, 930.885 1902.379 C 924.669 1887.448, 911.008 1870.111, 897.308 1859.767 L 892 1855.760 892 1787.367 L 892 1718.975 899.250 1722.612 C 940.610 1743.364, 1011.392 1782.025, 1027.866 1792.863 C 1028.998 1793.607, 1028.873 1794.723, 1027.141 1799.352 C 1020.983 1815.811, 1019.138 1841.324, 1023.002 1856.590 C 1029.329 1881.588, 1046.741 1898.291, 1077.029 1908.415 C 1093.118 1913.793, 1101.049 1915.247, 1114.500 1915.283 C 1128.144 1915.320, 1135.379 1913.532, 1144.014 1907.991 C 1154.088 1901.527, 1162.538 1889.036, 1166.003 1875.489 C 1174.109 1843.795, 1157.396 1803.684, 1119.612 1764.151 C 1111.754 1755.930, 1091.334 1738.202, 1078.267 1728.257 C 1043.961 1702.149, 1004.642 1679.221, 952.544 1654.945 L 926.065 1642.607 965.783 1622.476 C 1000.039 1605.114, 1047.748 1579.547, 1059 1572.523 L 1062.500 1570.338 1085.610 1589.419 C 1187.150 1673.257, 1281.092 1750.530, 1281.730 1750.738 C 1282.154 1750.876, 1282.530 1747.729, 1282.566 1743.745 C 1282.642 1735.266, 1285.106 1725.033, 1292.732 1701.513 C 1314.131 1635.515, 1352.012 1563.168, 1390.373 1515.031 C 1394.989 1509.239, 1408.831 1493.458, 1421.133 1479.963 C 1456.924 1440.699, 1477.080 1416.748, 1497.683 1389 C 1574.102 1286.074, 1622.069 1170.539, 1644.935 1034.320 C 1650.821 999.260, 1655.206 960.382, 1657.054 926.885 C 1657.673 915.673, 1658.589 905.719, 1659.089 904.764 C 1660.230 902.589, 1660.276 835.016, 1659.136 836.814 C 1658.643 837.592, 1658.025 833.717, 1657.622 827.314 C 1656.763 813.678, 1652.677 785.111, 1649.430 770.038 C 1640.611 729.114, 1627.543 692.314, 1609.108 656.500 C 1585.026 609.715, 1557.762 572.771, 1517.529 532.406 C 1476.726 491.470, 1434.101 459.100, 1381.500 429.106 C 1354.133 413.501, 1305.190 390.367, 1301.325 391.210 C 1300.593 391.369, 1302.583 393.591, 1305.747 396.147 C 1314.754 403.422, 1336.616 424.316, 1349.016 437.500 C 1429.397 522.964, 1481.461 626.281, 1496.414 730 C 1499.835 753.731, 1500.472 764.202, 1500.486 797 C 1500.501 831.929, 1499.818 841.951, 1495.513 870.019 C 1484.536 941.590, 1460.165 1007.671, 1416.226 1085 C 1357.857 1187.726, 1305.710 1259.601, 1244.010 1322.364 C 1199.088 1368.060, 1155.563 1403.305, 1090.500 1446.668 C 1075.765 1456.488, 1017.146 1494.530, 997.500 1507.021 C 972.623 1522.837, 928.885 1548.295, 900.750 1563.333 L 892 1568.010 892 1498.865 C 892 1434.196, 892.113 1429.633, 893.750 1428.366 C 894.712 1427.621, 903.375 1421.667, 913 1415.134 C 948.993 1390.706, 995.675 1364.319, 1055.218 1334.744 C 1074.313 1325.260, 1089.951 1317.248, 1089.968 1316.940 C 1089.986 1316.633, 1085.710 1308.758, 1080.467 1299.440 C 1075.223 1290.123, 1065.536 1271.822, 1058.939 1258.770 L 1046.945 1235.041 1061.223 1227.903 C 1165.261 1175.887, 1249.494 1090.322, 1299.163 986.199 C 1326.143 929.640, 1341.473 873.108, 1348.164 805.500 C 1349.708 789.893, 1349.716 733.902, 1348.176 718.500 C 1344.858 685.322, 1341.343 664.245, 1334.464 636.292 C 1299.659 494.862, 1205.962 374.073, 1076.626 303.900 C 1066.656 298.491, 1057.888 293.704, 1057.140 293.262 C 1055.727 292.427, 1060.745 280.531, 1076.423 247.544 C 1080.071 239.869, 1082.866 233.092, 1082.633 232.486 C 1082.400 231.879, 1076.650 228.059, 1069.855 223.996 C 1053.943 214.482, 1018.888 191.015, 1003.500 179.574 C 970.764 155.237, 944.405 132.434, 914.427 102.521 C 883.293 71.454, 864.472 49.987, 840.105 17.750 C 834.389 10.188, 829.369 4, 828.951 4 C 828.532 4, 825.147 8.162, 821.429 13.250 M 1017.129 389.790 C 1010.128 407.357, 994.265 457.692, 984.946 491.907 C 964.840 565.736, 952.423 637.015, 946.432 713 C 944.254 740.624, 943.417 809.282, 944.914 837.500 C 949.481 923.606, 963.086 1001.943, 987.418 1082.236 C 993.182 1101.259, 1006.540 1140.848, 1007.537 1141.864 C 1008.122 1142.460, 1034.307 1128.482, 1046.850 1120.878 C 1129.229 1070.937, 1194.078 991.094, 1225.437 901 C 1235.513 872.054, 1241.800 845.347, 1246.222 812.712 C 1248.103 798.836, 1248.425 791.745, 1248.460 763.500 C 1248.502 728.652, 1247.731 717.729, 1243.413 692 C 1224.357 578.469, 1158.036 476.521, 1061.410 412.230 C 1047.853 403.209, 1034.991 395.531, 1025.041 390.521 L 1018.209 387.080 1017.129 389.790 M 629 393.139 C 618.363 398.862, 601.817 409.031, 592 415.880 C 489.747 487.212, 425.461 595.187, 411.827 718.500 C 409.815 736.696, 410.121 792.836, 412.323 809.500 C 419.277 862.134, 432.162 905.394, 453.686 948.382 C 463.038 967.059, 467.869 975.411, 479.491 993 C 519.242 1053.160, 572.043 1100.638, 637.483 1135.063 L 650.790 1142.064 652.465 1137.282 C 686.876 1039.031, 703.214 963.929, 711.699 865 C 714.234 835.444, 714.231 742.910, 711.695 712 C 704.790 627.851, 691.177 553.794, 667.417 471.119 C 658.835 441.255, 641.014 387.996, 639.610 388.014 C 639 388.022, 634.225 390.328, 629 393.139 M 0.450 871 C 0.450 889.975, 0.584 897.737, 0.748 888.250 C 0.913 878.763, 0.913 863.237, 0.748 853.750 C 0.584 844.263, 0.450 852.025, 0.450 871" stroke="none" fill="#0c3c5c" fill-rule="evenodd"/></svg>